<?xml version="1.0" encoding="UTF-8" standalone="no"?>
<!DOCTYPE svg PUBLIC "-//W3C//DTD SVG 1.1//EN" "http://www.w3.org/Graphics/SVG/1.1/DTD/svg11.dtd">
<svg xmlns="http://www.w3.org/2000/svg" version="1.1" viewBox="0 0 663 266" width="663.0pt" height="266.0pt">
<path d="M 0.00 0.00 L 663.00 0.00 L 663.00 266.00 L 0.00 266.00 L 0.00 149.72 C 19.07 130.51 38.37 111.45 57.47 92.26 C 59.10 90.77 58.68 89.03 58.82 87.02 C 58.73 75.11 58.78 63.21 58.76 51.31 C 42.81 60.12 27.02 69.22 11.04 77.97 C 10.95 95.32 11.01 112.68 11.03 130.03 C 10.94 131.52 11.02 132.87 10.23 134.18 C 7.12 139.52 3.14 144.31 0.00 149.64 L 0.00 0.00 Z" fill="transparent" />
<path d="M 64.47 0.50 C 82.24 16.59 99.89 32.86 117.67 48.92 C 117.84 61.28 117.73 73.65 117.75 86.01 C 108.55 77.16 99.86 67.76 90.46 59.12 C 81.94 67.95 73.09 76.46 64.55 85.27 C 64.37 57.02 64.56 28.76 64.47 0.50 Z" fill="#57585a" />
<path d="M 58.76 51.31 C 58.78 63.21 58.73 75.11 58.82 87.02 C 58.68 89.03 59.10 90.77 57.47 92.26 C 38.37 111.45 19.07 130.51 0.00 149.72 L 0.00 149.64 C 3.14 144.31 7.12 139.52 10.23 134.18 C 11.02 132.87 10.94 131.52 11.03 130.03 C 11.01 112.68 10.95 95.32 11.04 77.97 C 27.02 69.22 42.81 60.12 58.76 51.31 Z" fill="#57585a" />
<path d="M 171.21 56.84 C 171.36 81.24 171.22 105.66 171.27 130.06 C 171.28 131.79 171.56 133.05 172.42 134.56 C 175.13 139.52 178.28 144.24 181.06 149.17 C 161.65 130.37 142.84 110.90 123.54 91.99 C 123.57 87.40 123.15 82.70 123.69 78.14 C 126.34 76.53 129.35 75.47 132.17 74.20 C 145.19 68.44 158.19 62.60 171.21 56.84 Z" fill="#57585a" />
<path d="M 90.69 69.87 C 98.63 77.41 106.17 85.38 114.03 92.99 C 115.25 94.26 116.70 95.56 117.56 97.11 C 118.04 101.02 117.69 105.06 117.76 109.00 C 117.77 144.32 117.73 179.69 117.76 215.00 C 117.71 218.88 118.07 222.98 117.33 226.80 C 116.33 231.24 111.28 233.72 107.01 232.89 C 103.15 232.39 100.15 228.81 99.87 224.99 C 99.33 218.38 100.12 211.67 99.57 205.05 C 99.33 202.78 98.32 200.90 96.46 199.54 C 92.53 196.30 85.66 198.24 83.97 203.04 C 83.14 205.14 83.29 207.76 83.24 210.00 C 83.32 224.33 83.22 238.66 83.31 253.00 C 83.24 256.30 83.43 259.39 81.08 262.02 C 77.87 266.07 70.91 266.35 67.27 262.73 C 65.07 260.69 64.49 257.94 64.47 255.05 C 64.50 201.95 64.46 148.85 64.49 95.75 C 73.38 87.30 81.77 78.30 90.69 69.87 Z" fill="#57585a" />
<path d="M 209.75 101.27 C 229.17 101.26 248.59 101.27 268.00 101.25 C 274.51 101.23 281.23 101.72 287.02 104.97 C 291.79 107.39 294.65 111.80 295.95 116.88 C 297.71 124.37 297.76 132.40 296.47 139.97 C 295.58 145.59 292.74 150.78 288.16 154.22 C 284.36 156.97 279.53 157.25 275.01 157.31 C 260.85 157.26 246.70 157.33 232.54 157.27 C 232.53 163.35 232.56 169.44 232.51 175.52 C 224.90 175.51 217.29 175.55 209.67 175.52 C 209.73 150.77 209.59 126.02 209.75 101.27 Z" fill="#1375bc" />
<path d="M 309.43 101.40 C 312.26 101.14 315.15 101.25 318.00 101.24 C 338.34 101.30 358.69 101.22 379.03 101.28 C 384.77 101.40 390.17 102.29 394.27 106.68 C 397.92 111.00 398.66 117.53 398.96 122.98 C 399.22 128.67 399.45 135.37 396.36 140.41 C 394.43 143.66 390.60 144.85 387.29 146.20 C 389.98 147.31 392.68 148.11 394.74 150.25 C 397.13 152.78 398.29 156.55 398.53 159.96 C 398.93 165.12 398.69 170.35 398.75 175.53 C 391.20 175.50 383.64 175.47 376.08 175.55 C 375.78 170.68 376.33 165.49 375.25 160.73 C 374.18 156.62 369.51 156.48 366.05 156.32 C 354.59 156.33 343.12 156.32 331.67 156.36 C 331.75 162.76 331.74 169.15 331.67 175.54 C 324.21 175.54 316.76 175.47 309.31 175.55 C 309.26 154.04 309.31 132.52 309.28 111.00 C 309.29 107.81 309.14 104.58 309.43 101.40 Z" fill="#1375bc" />
<path d="M 410.67 101.26 C 418.22 101.25 425.77 101.27 433.32 101.27 C 433.29 126.02 433.28 150.77 433.31 175.52 C 425.79 175.52 418.27 175.50 410.75 175.49 C 410.66 150.75 410.79 126.00 410.67 101.26 Z" fill="#1375bc" />
<path d="M 445.64 101.43 C 457.32 101.05 469.10 101.33 480.81 101.30 C 489.09 117.04 497.78 132.56 506.08 148.29 C 514.51 132.64 523.03 117.03 531.35 101.33 C 543.48 101.15 555.62 101.33 567.75 101.25 C 567.73 126.01 567.72 150.77 567.75 175.53 C 560.20 175.49 552.64 175.59 545.08 175.52 C 544.87 157.98 545.30 140.42 544.85 122.89 C 535.04 140.56 524.63 157.89 514.77 175.52 C 509.02 175.53 503.27 175.53 497.53 175.53 C 492.50 166.55 487.50 157.54 482.44 148.57 C 477.72 139.97 472.65 131.64 468.27 122.85 C 467.80 140.40 468.39 157.98 467.93 175.53 C 460.45 175.54 452.97 175.51 445.48 175.52 C 445.42 153.68 445.49 131.84 445.45 110.00 C 445.45 107.15 445.34 104.26 445.64 101.43 Z" fill="#1375bc" />
<path d="M 579.91 101.29 C 606.58 101.21 633.26 101.30 659.93 101.25 C 660.15 107.36 660.21 113.47 659.93 119.57 C 640.81 119.46 621.68 119.52 602.55 119.51 C 602.53 123.32 602.54 127.13 602.60 130.94 C 620.83 131.07 639.10 131.17 657.33 130.83 C 657.32 135.84 657.29 140.83 657.32 145.83 C 639.11 146.44 620.84 145.91 602.61 146.12 C 602.56 149.72 602.54 153.32 602.52 156.93 C 622.19 157.04 641.87 156.84 661.54 157.06 C 661.52 163.21 661.56 169.36 661.53 175.51 C 634.38 175.52 607.23 175.47 580.08 175.54 C 579.68 150.80 579.99 126.04 579.91 101.29 Z" fill="#1375bc" />
<path d="M 58.68 101.67 C 58.83 130.80 58.67 159.92 58.76 189.05 C 58.80 192.30 58.20 195.33 55.30 197.22 C 50.90 200.21 44.52 198.19 42.98 193.01 C 41.56 186.20 43.32 178.77 42.06 171.95 C 40.44 166.67 33.23 165.71 29.79 169.70 C 27.84 171.82 28.18 174.33 28.06 177.00 C 28.15 189.66 28.07 202.33 28.12 215.00 C 28.08 217.37 28.07 220.02 27.31 222.28 C 25.13 227.09 18.73 229.20 14.40 225.78 C 11.70 223.77 10.95 221.32 11.00 218.05 C 11.05 195.02 11.03 172.27 11.03 149.25 C 26.96 133.44 42.78 117.52 58.68 101.67 Z" fill="#1375bc" />
<path d="M 123.52 102.66 C 138.63 117.49 153.45 132.62 168.53 147.49 C 169.67 148.73 171.18 149.97 171.20 151.80 C 171.48 158.45 171.18 165.14 171.26 171.80 C 163.59 170.92 155.72 171.41 148.00 171.29 C 139.84 171.42 131.57 170.93 123.44 171.71 C 123.52 148.69 123.37 125.67 123.52 102.66 Z" fill="#eb1d24" />
<path d="M 74.47 115.85 C 78.94 115.53 83.46 115.81 87.95 115.70 C 88.01 120.30 88.01 124.90 87.99 129.50 C 83.44 129.50 78.88 129.50 74.33 129.51 C 74.30 124.98 74.02 120.36 74.47 115.85 Z" fill="transparent" />
<path d="M 94.50 115.89 C 98.98 115.50 103.54 115.79 108.03 115.71 C 107.99 120.31 108.00 124.91 108.00 129.50 C 103.43 129.50 98.87 129.51 94.30 129.50 C 94.31 124.99 94.02 120.38 94.50 115.89 Z" fill="transparent" />
<path d="M 232.50 119.54 C 241.00 119.47 249.51 119.54 258.01 119.49 C 261.47 119.53 265.21 119.53 268.55 120.55 C 271.22 121.47 273.30 123.57 273.55 126.49 C 273.81 129.54 274.13 133.68 272.35 136.34 C 269.58 139.13 265.64 138.99 262.00 139.07 C 252.18 138.97 242.36 139.13 232.55 138.93 C 232.53 132.47 232.53 126.00 232.50 119.54 Z" fill="transparent" />
<path d="M 331.70 119.51 C 342.80 119.53 353.90 119.48 365.00 119.51 C 368.10 119.60 371.94 119.63 374.59 121.45 C 376.98 123.08 377.06 126.42 377.11 129.02 C 376.88 131.17 376.97 133.54 374.93 134.82 C 371.97 136.93 367.52 136.88 364.02 136.96 C 353.23 136.98 342.45 137.00 331.66 136.88 C 331.72 131.09 331.73 125.30 331.70 119.51 Z" fill="transparent" />
<path d="M 74.43 135.23 C 78.89 134.76 83.44 135.08 87.92 134.92 C 88.04 139.54 88.01 144.15 88.00 148.76 C 83.43 148.72 78.87 148.72 74.30 148.76 C 74.34 144.27 74.00 139.71 74.43 135.23 Z" fill="transparent" />
<path d="M 94.32 134.93 C 98.86 135.03 103.41 134.99 107.95 135.05 C 108.03 139.62 108.00 144.19 108.00 148.76 C 103.43 148.71 98.87 148.72 94.30 148.78 C 94.28 144.16 94.25 139.55 94.32 134.93 Z" fill="transparent" />
<path d="M 128.97 176.69 C 140.31 176.65 151.66 176.82 163.00 176.64 C 165.47 176.67 168.22 176.59 170.49 177.68 C 172.54 179.43 173.54 182.55 174.76 184.90 C 177.46 185.91 180.48 186.32 181.74 189.28 C 182.74 192.15 182.54 195.92 181.76 198.83 C 180.94 201.62 177.86 202.53 175.46 203.50 C 167.49 206.19 159.56 208.97 151.67 211.88 C 151.57 215.05 151.54 218.21 151.52 221.37 C 152.60 221.84 153.68 222.31 154.76 222.77 C 155.97 228.28 155.44 233.39 155.53 239.00 C 155.49 242.52 155.72 246.11 155.36 249.61 C 155.28 255.22 143.88 254.91 144.53 249.09 C 144.46 241.34 144.41 233.54 144.59 225.81 C 144.45 223.62 146.83 222.27 148.16 220.82 C 148.28 217.74 148.07 214.49 148.70 211.46 C 149.47 208.74 153.50 207.78 155.84 206.83 C 163.07 204.04 170.92 202.24 177.85 198.83 C 180.68 195.69 179.45 190.72 176.37 188.06 C 175.60 188.65 174.83 189.25 174.06 189.85 C 173.65 192.00 173.49 194.44 172.25 196.30 C 170.65 198.30 167.29 197.94 165.00 198.11 C 153.67 198.11 142.33 198.06 131.00 198.11 C 128.77 198.01 125.97 198.16 123.97 197.05 C 121.89 195.71 121.81 192.20 121.67 190.01 C 121.71 186.65 121.25 182.67 122.54 179.52 C 123.92 176.92 126.30 176.75 128.97 176.69 Z" fill="#1375bc" />
<path d="M 143.00 180.54 C 151.54 180.75 160.20 180.07 168.70 180.96 C 167.00 182.66 166.49 183.34 163.99 183.26 C 155.00 183.32 146.00 183.18 137.00 183.31 C 133.57 183.40 130.56 183.03 127.27 182.05 C 132.14 179.61 137.60 180.71 143.00 180.54 Z" fill="transparent" />
<path d="M 215.20 188.42 C 220.11 188.04 225.08 188.31 230.00 188.23 C 234.00 188.23 237.71 188.45 240.99 191.00 C 247.46 195.66 247.32 206.29 241.07 211.08 C 236.64 215.06 229.05 214.14 223.50 214.38 C 223.52 218.34 223.50 222.30 223.53 226.26 C 220.69 226.29 217.85 226.29 215.01 226.30 C 215.18 213.70 214.71 201.00 215.20 188.42 Z" fill="#57585a" />
<path d="M 293.43 188.22 C 298.48 200.94 303.78 213.58 308.81 226.31 C 305.68 226.29 302.55 226.28 299.42 226.27 C 298.45 223.60 297.44 220.94 296.45 218.28 C 291.43 218.27 286.41 218.27 281.40 218.37 C 280.47 221.04 279.52 223.70 278.56 226.35 C 275.58 226.31 272.59 226.28 269.60 226.25 C 274.64 213.63 279.82 201.07 284.84 188.44 C 287.68 188.19 290.57 188.23 293.43 188.22 Z" fill="#57585a" />
<path d="M 339.01 188.42 C 341.81 188.14 344.67 188.24 347.49 188.26 C 347.54 200.94 347.59 213.63 347.46 226.31 C 344.56 226.30 341.67 226.29 338.78 226.29 C 338.68 216.19 338.78 206.10 338.70 196.00 C 338.71 193.49 338.64 190.90 339.01 188.42 Z" fill="#57585a" />
<path d="M 382.25 188.40 C 384.94 188.11 387.81 187.98 390.47 188.50 C 391.75 189.52 392.73 191.01 393.68 192.33 C 398.24 199.11 403.04 205.72 407.73 212.40 C 407.71 204.37 407.74 196.33 407.68 188.30 C 410.42 188.26 413.17 188.24 415.91 188.25 C 416.07 200.95 415.98 213.65 415.97 226.35 C 413.61 226.08 409.45 226.94 407.60 225.57 C 401.55 217.66 396.13 209.20 390.28 201.14 C 390.26 209.52 390.27 217.91 390.28 226.29 C 387.53 226.29 384.78 226.28 382.02 226.29 C 381.97 216.19 382.07 206.10 381.97 196.00 C 381.98 193.48 381.91 190.89 382.25 188.40 Z" fill="#57585a" />
<path d="M 446.88 188.50 C 456.96 187.93 467.21 188.38 477.32 188.30 C 477.30 190.77 477.28 193.23 477.27 195.70 C 473.61 195.74 469.95 195.75 466.29 195.70 C 466.27 205.89 466.27 216.09 466.29 226.28 C 463.44 226.28 460.58 226.29 457.73 226.31 C 457.69 216.11 457.80 205.91 457.66 195.72 C 453.97 195.74 450.29 195.75 446.60 195.71 C 446.65 193.31 446.61 190.88 446.88 188.50 Z" fill="#57585a" />
<path d="M 508.46 188.38 C 511.19 188.11 513.98 188.23 516.73 188.24 C 516.75 200.94 516.82 213.64 516.71 226.34 C 513.90 226.31 511.08 226.29 508.27 226.27 C 508.40 213.66 507.99 200.97 508.46 188.38 Z" fill="#57585a" />
<path d="M 551.42 188.39 C 554.30 188.09 557.24 188.23 560.13 188.28 C 565.84 196.44 571.52 204.61 577.23 212.76 C 577.29 204.59 577.20 196.42 577.29 188.25 C 580.03 188.25 582.77 188.24 585.51 188.24 C 585.52 200.92 585.48 213.60 585.57 226.28 C 582.78 226.29 579.98 226.30 577.19 226.33 C 571.44 217.83 565.43 209.50 559.55 201.09 C 559.47 209.48 559.52 217.87 559.53 226.26 C 556.76 226.29 554.00 226.29 551.23 226.28 C 551.39 213.67 550.97 200.97 551.42 188.39 Z" fill="#57585a" />
<path d="M 652.66 193.42 C 650.70 195.45 648.71 197.43 646.74 199.43 C 643.46 196.95 640.29 194.99 635.95 195.58 C 629.83 196.40 625.68 201.92 626.23 208.02 C 626.27 215.40 633.70 220.69 640.73 218.63 C 644.64 217.73 646.01 214.75 647.94 211.62 C 644.30 211.49 640.65 211.50 637.01 211.54 C 637.00 209.52 637.01 207.50 637.01 205.48 C 643.46 205.48 649.90 205.46 656.34 205.50 C 656.17 211.61 655.19 217.21 650.62 221.62 C 643.18 229.00 629.45 228.16 622.61 220.38 C 615.83 213.19 616.06 200.13 623.43 193.41 C 631.05 185.47 644.82 186.04 652.66 193.42 Z" fill="#57585a" />
<path d="M 223.52 195.52 C 226.99 195.67 231.40 194.93 234.59 196.43 C 238.42 198.66 237.97 204.05 234.42 206.30 C 231.16 207.65 226.99 207.22 223.51 207.35 C 223.52 203.41 223.52 199.47 223.52 195.52 Z" fill="transparent" />
<path d="M 288.93 198.32 C 290.66 202.68 292.34 207.07 293.89 211.49 C 290.58 211.52 287.26 211.53 283.94 211.50 C 285.55 207.09 287.29 202.72 288.93 198.32 Z" fill="transparent" />
<path d="M 147.10 226.44 C 147.91 228.94 148.39 231.37 148.34 234.00 C 148.33 238.89 148.47 243.90 147.83 248.75 C 147.02 246.54 146.45 244.37 146.49 242.00 C 146.49 236.85 146.30 231.50 147.10 226.44 Z" fill="transparent" />
</svg>